<svg id="Layer_30" enable-background="new 0 0 496 496" height="512" viewBox="0 0 496 496" width="512" xmlns="http://www.w3.org/2000/svg"><g><g><g><path d="m376 112v48l-20.28 6.76c-2.37 8.32-5.68 16.24-9.81 23.64l9.57 19.14-33.94 33.94-19.14-9.57c-7.4 4.13-15.32 7.44-23.64 9.81l-6.76 20.28h-24-24l-6.76-20.28c-8.32-2.37-16.24-5.68-23.64-9.81l-19.14 9.57-33.94-33.94 9.57-19.14c-4.13-7.4-7.44-15.32-9.81-23.64l-20.28-6.76v-48l20.28-6.76c2.37-8.32 5.68-16.24 9.81-23.64l-9.57-19.14 33.94-33.94 19.14 9.57c7.4-4.13 15.32-7.44 23.64-9.81l6.76-20.28h48l6.76 20.28c8.32 2.37 16.24 5.68 23.64 9.81l19.14-9.57 33.94 33.94-9.57 19.14c4.13 7.4 7.44 15.32 9.81 23.64z" fill="#fcd770"/></g><g><path d="m304 176v16c0 4.42-3.58 8-8 8h-96c-4.42 0-8-3.58-8-8v-16c0-4.42 3.58-8 8-8h96c4.42 0 8 3.58 8 8z" fill="#5cd6b3"/></g><g><path d="m304 144v16c0 4.42-3.58 8-8 8h-96c-4.42 0-8-3.58-8-8v-16c0-4.42 3.58-8 8-8h96c4.42 0 8 3.58 8 8z" fill="#5cd6b3"/></g><g><path d="m304 112v16c0 4.42-3.58 8-8 8h-96c-4.42 0-8-3.58-8-8v-16c0-4.42 3.58-8 8-8h96c4.42 0 8 3.58 8 8z" fill="#5cd6b3"/></g><g><path d="m304 80v16c0 4.42-3.58 8-8 8h-96c-4.42 0-8-3.58-8-8v-16c0-4.42 3.58-8 8-8h96c4.42 0 8 3.58 8 8z" fill="#5cd6b3"/></g><g><path d="m8 200h96v96h-96z" fill="#e6e9ed"/></g><g><path d="m392 200h96v96h-96z" fill="#e6e9ed"/></g><g><path d="m448 328v160h-112v-160h16z" fill="#e6e9ed"/></g><g><path d="m304 328v160h-112v-160h56z" fill="#e6e9ed"/></g><g><path d="m160 328v160h-112v-160h96z" fill="#e6e9ed"/></g><g><path d="m368 360h48v32h-48z" fill="#f29ed0"/></g><g><path d="m224 360h48v32h-48z" fill="#f29ed0"/></g><g><path d="m80 360h48v32h-48z" fill="#f29ed0"/></g></g><g><path d="m280 352h-64v48h64zm-16 32h-32v-16h32z"/><path d="m216 416h64v16h-64z"/><path d="m216 448h64v16h-64z"/><path d="m424 352h-64v48h64zm-16 32h-32v-16h32z"/><path d="m360 416h64v16h-64z"/><path d="m360 448h64v16h-64z"/><path d="m384 192v112h112v-112zm96 96h-80v-80h80z"/><path d="m416 224h48v16h-48z"/><path d="m416 256h48v16h-48z"/><path d="m112 192h-112v112h112zm-16 96h-80v-80h80z"/><path d="m32 224h48v16h-48z"/><path d="m32 256h48v16h-48z"/><path d="m136 352h-64v48h64zm-16 32h-32v-16h32z"/><path d="m72 416h64v16h-64z"/><path d="m72 448h64v16h-64z"/><path d="m312 192v-16c0-2.916-.797-5.643-2.165-8 1.368-2.357 2.165-5.084 2.165-8v-16c0-2.916-.797-5.643-2.165-8 1.368-2.357 2.165-5.084 2.165-8v-16c0-2.916-.797-5.643-2.165-8 1.368-2.357 2.165-5.084 2.165-8v-16c0-8.822-7.178-16-16-16h-96c-8.822 0-16 7.178-16 16v16c0 2.916.797 5.643 2.165 8-1.368 2.357-2.165 5.084-2.165 8v16c0 2.916.797 5.643 2.165 8-1.368 2.357-2.165 5.084-2.165 8v16c0 2.916.797 5.643 2.165 8-1.368 2.357-2.165 5.084-2.165 8v16c0 8.822 7.178 16 16 16h96c8.822 0 16-7.178 16-16zm-112-48h96l.01 16s-.003 0-.01 0h-96zm0-32h96l.01 16s-.003 0-.01 0h-96zm0-32h96l.01 16s-.003 0-.01 0h-96zm0 96h96l.01 16s-.003 0-.01 0h-96z"/><path d="m64 144h32v-16h-48v48h16z"/><path d="m432 176h16v-48h-48v16h32z"/><path d="m256 272h21.766l7.277-21.83c5.992-1.945 11.845-4.374 17.479-7.254l20.596 10.299 42.096-42.096-10.298-20.597c2.879-5.635 5.308-11.487 7.253-17.479l21.831-7.277v-59.531l-21.831-7.277c-1.945-5.992-4.374-11.845-7.253-17.479l10.298-20.597-42.096-42.096-20.596 10.299c-5.635-2.88-11.488-5.309-17.479-7.254l-7.277-21.831h-59.532l-7.277 21.83c-5.993 1.946-11.844 4.374-17.479 7.254l-20.596-10.299-42.095 42.097 10.298 20.596c-2.879 5.634-5.308 11.486-7.253 17.479l-21.832 7.277v59.531l21.831 7.277c1.945 5.993 4.374 11.846 7.253 17.479l-10.298 20.596 42.095 42.097 20.596-10.299c5.635 2.88 11.487 5.308 17.479 7.254l7.277 21.83h21.767v48h-56v176h128v-175.999h-56zm-32.505-34.813-4.061-1.157c-7.604-2.168-14.987-5.231-21.946-9.105l-3.691-2.056-17.756 8.878-25.787-25.786 8.878-17.757-2.056-3.691c-3.874-6.956-6.938-14.34-9.105-21.945l-1.157-4.061-18.814-6.273v-36.469l18.814-6.271 1.157-4.061c2.168-7.605 5.231-14.989 9.105-21.945l2.056-3.691-8.878-17.757 25.787-25.786 17.756 8.878 3.691-2.056c6.959-3.874 14.343-6.938 21.946-9.105l4.061-1.157 6.271-18.814h36.468l6.271 18.813 4.061 1.157c7.603 2.167 14.987 5.23 21.946 9.105l3.691 2.056 17.756-8.878 25.787 25.787-8.878 17.756 2.056 3.69c3.875 6.959 6.938 14.343 9.104 21.945l1.158 4.062 18.814 6.273v36.469l-18.814 6.271-1.158 4.062c-2.167 7.603-5.23 14.986-9.104 21.945l-2.056 3.69 8.878 17.756-25.787 25.787-17.756-8.878-3.691 2.056c-6.959 3.875-14.343 6.938-21.946 9.105l-4.061 1.157-6.271 18.814h-36.468zm72.505 242.813h-96v-144h96z"/><path d="m360 288h-32v-16h-16v32h32v16h-16v176h128v-176h-96zm80 192h-96v-144h96z"/><path d="m152 304h32v-32h-16v16h-32v32h-96v176h128v-176h-16zm0 176h-96v-144h96z"/></g></g></svg>